<?xml version="1.0" encoding="utf-8"?>
<!-- Generator: Adobe Illustrator 16.0.0, SVG Export Plug-In . SVG Version: 6.00 Build 0)  -->
<!DOCTYPE svg PUBLIC "-//W3C//DTD SVG 1.1//EN" "http://www.w3.org/Graphics/SVG/1.1/DTD/svg11.dtd">
<svg version="1.1" id="Layer_1" xmlns="http://www.w3.org/2000/svg" xmlns:xlink="http://www.w3.org/1999/xlink" x="0px" y="0px"
	 width="300px" height="300px" viewBox="0 0 300 300" enable-background="new 0 0 300 300" xml:space="preserve">
<g>
	<g>
		<g>
			<path fill="#FAE86F" d="M194.134,222.926l-1.299-1.361l-1.228-1.522c-0.378-0.528-0.724-1.074-1.088-1.615
				c-0.334-0.557-0.627-1.14-0.943-1.714c-0.288-0.586-0.522-1.199-0.786-1.803c-0.237-0.612-0.409-1.25-0.615-1.88
				c-0.182-0.635-0.279-1.292-0.421-1.941c-0.128-0.651-0.152-1.317-0.231-1.979c-0.012-0.188-0.042-0.281-0.039-0.55l-0.004-0.47
				l-0.008-0.94c-0.007-0.625,0.095-1.357,0.144-2.036c0.078-0.684,0.226-1.329,0.339-1.998c0.154-0.655,0.351-1.302,0.528-1.955
				l0.747-1.853c0.3-0.612,0.594-1.242,0.909-1.844c0.337-0.574,0.654-1.165,1.012-1.729l0.558-0.834l0.279-0.417l0.07-0.104
				l0.035-0.052l0.086-0.112l0.14-0.189l-0.041,0.05c1.996-2.596,4.337-4.951,7.041-6.867c0.666-0.491,1.397-0.881,2.098-1.324
				l1.065-0.646c0.366-0.194,0.747-0.357,1.121-0.538c0.753-0.349,1.507-0.705,2.271-1.033l2.37-0.79
				c0.786-0.295,1.602-0.465,2.42-0.632c0.818-0.161,1.633-0.376,2.461-0.486l2.498-0.247l0.627-0.06l0.313-0.029l0.432-0.002
				l1.149,0.003c1.433-0.062,3.306,0.155,5.033,0.359l2.494,0.492c0.835,0.161,1.637,0.453,2.456,0.686
				c3.238,1.051,6.34,2.586,9.157,4.581c2.786,2.035,5.275,4.519,7.309,7.374c2.011,2.858,3.657,6.063,4.563,9.521
				c0.438,1.723,0.857,3.479,0.981,5.268l0.133,1.342l0.016,0.168l-0.001,0.388l0.001,0.287l0.002,0.575l0.005,1.15l0.002,0.575
				c-0.004,0.201-0.039,0.472-0.059,0.705c-0.097,0.964-0.197,1.947-0.332,2.904l-0.586,2.665c-0.498,1.746-1.066,3.495-1.893,5.122
				c-1.559,3.299-3.749,6.285-6.355,8.81l-2.059,1.775c-0.698,0.575-1.459,1.066-2.189,1.597c-0.731,0.533-1.544,0.931-2.327,1.373
				l-1.185,0.646l-1.232,0.543c-3.272,1.463-6.781,2.369-10.303,2.629c-0.44,0.038-0.877,0.1-1.316,0.114l-1.319,0.012l-1.315-0.004
				l-0.804-0.012l-0.573-0.056c-0.788-0.084-1.451-0.115-2.438-0.278c-0.915-0.137-1.838-0.285-2.659-0.508
				c-3.384-0.786-6.605-2.144-9.489-3.952c-2.868-1.832-5.426-4.097-7.423-6.746c-2.022-2.617-3.528-5.579-4.344-8.652l0.902-0.434
				c1.864,2.44,3.987,4.516,6.293,6.232c1.155,0.855,2.377,1.592,3.594,2.284c0.628,0.32,1.258,0.627,1.887,0.919
				c0.655,0.25,1.281,0.537,1.934,0.764c2.593,0.939,5.268,1.481,7.931,1.676c0.683,0.077,1.289,0.046,1.898,0.059
				c0.535,0.035,1.408-0.026,2.15-0.052l0.575-0.024l0.036-0.001c0.047,0-0.271-0.005-0.122-0.005l0.062-0.009l0.123-0.018
				l0.245-0.035l0.979-0.132l0.975-0.115c0.323-0.048,0.64-0.14,0.959-0.205c0.632-0.159,1.277-0.242,1.893-0.45l1.848-0.568
				c1.192-0.486,2.384-0.944,3.501-1.557l0.851-0.426l0.802-0.511c0.528-0.347,1.092-0.64,1.57-1.053
				c0.499-0.382,1.035-0.717,1.512-1.124l1.41-1.24c1.806-1.729,3.346-3.699,4.586-5.847c0.642-1.067,1.114-2.214,1.591-3.366
				l0.583-1.779c0.122-0.552,0.232-1.087,0.372-1.637c0.03-0.146,0.076-0.252,0.098-0.433l0.052-0.572l0.104-1.146l0.052-0.573
				l0.026-0.286l0.006-0.071l0.003-0.036c0.003-0.065-0.007,0.434-0.003,0.209l-0.003-0.119l-0.015-0.952
				c-0.01-0.635,0.019-1.279-0.094-1.907c-0.098-0.628-0.104-1.279-0.263-1.899c-0.463-2.527-1.503-4.95-2.876-7.177
				c-1.385-2.226-3.157-4.244-5.219-5.962c-2.093-1.679-4.46-3.042-6.991-4.041c-0.643-0.22-1.263-0.524-1.925-0.695l-1.98-0.551
				c-1.303-0.227-2.46-0.533-4.098-0.598l-1.146-0.088l-0.143-0.011l-0.072-0.006c0.051,0.001-0.163-0.004,0.104,0l-0.032,0.001
				l-0.26,0.008l-0.52,0.014l-2.088,0.045c-0.695,0.038-1.379,0.176-2.072,0.255c-0.693,0.086-1.39,0.17-2.058,0.373l-2.039,0.509
				l-1.973,0.725c-0.329,0.124-0.667,0.23-0.99,0.368l-0.942,0.471c-0.622,0.326-1.283,0.597-1.883,0.966
				c-2.443,1.433-4.626,3.277-6.568,5.379l-0.041,0.05l-0.155,0.177l-0.02,0.022l-0.005,0.005c-0.048,0.059,0.06-0.073,0.047-0.058
				l-0.009,0.011l-0.034,0.043l-0.067,0.085l-0.274,0.342l-0.55,0.685c-0.354,0.465-0.674,0.956-1.016,1.434l-0.89,1.455
				l-0.807,1.568c-0.194,0.542-0.413,1.08-0.596,1.63c-0.141,0.557-0.326,1.123-0.437,1.677c-0.084,0.566-0.227,1.069-0.275,1.696
				l-0.073,0.938l-0.037,0.469c-0.014,0.045,0,0.265-0.001,0.389c0.022,0.585-0.013,1.18,0.052,1.765
				c0.078,0.583,0.111,1.178,0.223,1.759c0.13,0.577,0.223,1.168,0.381,1.742c0.185,0.566,0.339,1.146,0.547,1.709
				c0.237,0.55,0.451,1.115,0.707,1.662c0.286,0.529,0.558,1.075,0.856,1.6l0.983,1.515l1.155,1.485L194.134,222.926z"/>
		</g>
		<g>
			<path fill="#FAE86F" d="M88.354,213.824c0,0,1.377-1.37,3.787-3.768c0.571-0.623,1.345-1.2,2.147-1.868
				c0.818-0.66,1.703-1.374,2.648-2.136c0.237-0.191,0.479-0.387,0.725-0.584c0.264-0.183,0.532-0.367,0.804-0.556
				c0.519-0.354,1.053-0.72,1.601-1.095c0.551-0.372,1.102-0.764,1.692-1.146c0.625-0.361,1.264-0.731,1.917-1.109
				c0.657-0.377,1.328-0.763,2.013-1.155c0.691-0.374,1.409-0.697,2.135-1.058c0.729-0.354,1.47-0.713,2.223-1.078
				c0.759-0.352,1.557-0.64,2.354-0.971c0.803-0.32,1.616-0.646,2.439-0.976c0.844-0.27,1.698-0.543,2.563-0.819
				c0.868-0.266,1.741-0.568,2.637-0.811c0.903-0.217,1.815-0.437,2.735-0.657c3.684-0.898,7.587-1.445,11.58-1.714l0.75-0.063
				l0.843-0.02l1.439-0.025c0.962-0.017,1.927-0.032,2.894-0.049c1.04,0.053,2.083,0.105,3.127,0.158
				c1.045,0.058,2.108,0.092,3.11,0.24c2.036,0.228,4.08,0.446,6.096,0.833c1.009,0.18,2.028,0.327,3.029,0.539
				c0.998,0.235,1.993,0.471,2.984,0.705l1.488,0.354l1.455,0.444c0.972,0.292,1.93,0.611,2.884,0.927
				c0.95,0.325,1.866,0.727,2.781,1.11c0.908,0.397,1.832,0.753,2.691,1.221c0.859,0.466,1.718,0.919,2.552,1.396
				c0.417,0.239,0.84,0.461,1.244,0.712c0.395,0.266,0.788,0.53,1.179,0.793c0.785,0.521,1.541,1.065,2.296,1.588
				c0.753,0.525,1.426,1.147,2.124,1.704c0.69,0.57,1.373,1.128,2.021,1.703c0.622,0.606,1.234,1.204,1.836,1.792
				c0.586,0.604,1.186,1.165,1.721,1.772c0.535,0.609,1.046,1.219,1.543,1.814c0.489,0.604,1.001,1.158,1.436,1.761
				c0.427,0.607,0.845,1.199,1.251,1.777c0.396,0.58,0.78,1.146,1.155,1.694c0.355,0.563,0.667,1.134,0.975,1.68
				c0.604,1.099,1.205,2.087,1.64,3.08c0.437,0.992,0.835,1.894,1.169,2.717c0.365,0.803,0.585,1.579,0.79,2.24
				c0.206,0.659,0.378,1.218,0.499,1.679c0.258,0.911,0.371,1.401,0.371,1.401l-0.883,0.469c0,0-0.372-0.348-1.024-1.009
				c-0.684-0.641-1.524-1.666-2.771-2.819c-0.617-0.58-1.273-1.231-1.984-1.93c-0.69-0.714-1.557-1.389-2.382-2.168
				c-0.42-0.381-0.854-0.774-1.3-1.179c-0.468-0.38-0.949-0.771-1.443-1.172c-0.482-0.404-0.978-0.818-1.484-1.242
				c-0.513-0.414-1.066-0.807-1.611-1.223c-0.551-0.411-1.109-0.83-1.664-1.269c-0.562-0.432-1.186-0.811-1.787-1.229
				c-0.599-0.419-1.207-0.845-1.824-1.277c-0.641-0.396-1.292-0.8-1.952-1.207c-1.287-0.855-2.687-1.605-4.088-2.409
				c-1.37-0.854-2.886-1.524-4.338-2.36c-0.721-0.43-1.514-0.735-2.267-1.137c-0.771-0.364-1.516-0.805-2.305-1.162
				c-0.793-0.348-1.593-0.696-2.389-1.075l-1.203-0.56l-1.243-0.477c-0.833-0.322-1.669-0.645-2.509-0.969
				c-0.848-0.302-1.72-0.534-2.586-0.809c-1.722-0.598-3.521-0.905-5.308-1.308c-0.903-0.219-1.775-0.313-2.657-0.442l-2.646-0.383
				c-0.963-0.068-1.923-0.136-2.881-0.203l-1.436-0.1l-0.591-0.041l-0.681-0.001c-3.627-0.038-7.229,0.037-10.682,0.507
				c-0.866,0.112-1.725,0.223-2.575,0.332c-0.847,0.135-1.673,0.33-2.5,0.488c-0.826,0.169-1.644,0.336-2.451,0.502
				c-0.796,0.215-1.582,0.428-2.357,0.638c-0.774,0.219-1.555,0.396-2.299,0.64c-0.74,0.257-1.47,0.51-2.188,0.759
				c-0.715,0.255-1.438,0.48-2.115,0.748c-0.667,0.285-1.321,0.563-1.963,0.837c-0.646,0.273-1.279,0.541-1.897,0.803
				c-0.622,0.296-1.229,0.618-1.82,0.914c-0.592,0.3-1.169,0.592-1.729,0.876c-0.265,0.137-0.526,0.271-0.783,0.402
				c-0.252,0.154-0.5,0.306-0.744,0.455c-0.983,0.6-1.904,1.161-2.755,1.68c-0.854,0.527-1.672,0.958-2.336,1.502
				c-2.729,2.026-4.289,3.185-4.289,3.185L88.354,213.824z"/>
		</g>
		<g>
			<path fill="#FAE86F" d="M148.979,293.821c-1.236,0.041-2.446,0.151-3.703,0.135l-1.905-0.051
				c-0.639-0.013-1.263-0.121-1.898-0.179c-2.534-0.287-5.021-1.021-7.369-1.773c-2.34-0.762-4.639-1.399-7.025-2.09
				c-2.383-0.705-4.761-1.421-7.121-2.2c-4.733-1.525-9.409-3.289-14.025-5.285c-2.307-1.002-4.589-2.087-6.854-3.233
				c-2.247-1.185-4.463-2.454-6.64-3.825c-4.33-2.778-8.508-5.987-12.18-9.962c-1.845-1.973-3.583-4.12-5.068-6.505
				c-1.471-2.385-2.752-4.975-3.587-7.741c-0.874-2.753-1.321-5.657-1.363-8.535l0.028-1.134l0.041-0.921l0.041-0.92
				c0.03-0.354,0.082-0.744,0.129-1.114l0.304-2.24l0.475-2.066l0.248-1.026l0.327-1.003l0.67-1.992
				c0.267-0.646,0.538-1.289,0.821-1.925l0.423-0.953l0.487-0.919c0.327-0.61,0.645-1.224,0.985-1.821l1.123-1.729l0.563-0.856
				l0.625-0.811l1.254-1.604l0.316-0.403l0.14-0.143c0.46-0.467,1.121-0.854,1.752-1.023l-2.089,1.42
				c1.324-1.323,2.646-2.629,3.993-3.889c1.443-1.17,2.897-2.306,4.356-3.402l-0.31,0.355c0.203-0.259,0.461-0.498,0.732-0.68
				l-0.26,0.202c1.536-0.898,3.077-1.752,4.61-2.556c1.636-0.655,3.244-1.299,4.872-1.838l0.504,0.863
				c-1.158,1.273-2.336,2.441-3.486,3.598c-1.073,1.256-2.116,2.494-3.178,3.669l-0.26,0.202c0.213-0.129,0.411-0.314,0.555-0.52
				l-0.31,0.355c-0.971,1.41-1.945,2.781-2.932,4.118c-0.869,1.438-1.757,2.833-2.646,4.209l-2.089,1.421
				c0.613-0.153,1.259-0.522,1.701-0.973l0.456-0.546c-0.983,2.009-1.956,3.979-2.6,6.047l-0.272,0.76l-0.209,0.778
				c-0.136,0.519-0.288,1.029-0.438,1.539c-0.185,1.049-0.483,2.065-0.585,3.114l-0.221,1.552l-0.107,1.423
				c-0.131,0.728-0.059,2.558-0.123,3.27c0.036,2.036,0.257,4.035,0.662,6.026c0.44,1.979,1.045,3.963,1.945,5.882
				c0.886,1.924,2.048,3.775,3.382,5.545c1.357,1.752,2.873,3.438,4.55,5.003c1.674,1.568,3.461,3.056,5.327,4.474
				c3.766,2.798,7.814,5.336,12.017,7.676c2.109,1.155,4.244,2.284,6.424,3.34c2.176,1.063,4.371,2.106,6.595,3.098
				c2.219,1.006,4.466,1.951,6.716,2.887c2.26,0.909,4.604,1.886,6.841,2.913c2.229,1.021,4.405,1.92,6.712,2.499
				c0.578,0.127,1.155,0.309,1.741,0.395l1.766,0.279c1.192,0.173,2.444,0.223,3.663,0.34L148.979,293.821z"/>
		</g>
	</g>
	<g>
		<path fill="#FAE86F" d="M162.072,104.932c-1.589-0.064-3.164-0.021-4.764-0.174l-2.409-0.283c-0.4-0.052-0.807-0.084-1.203-0.153
			l-1.18-0.251l-2.362-0.502c-0.783-0.186-1.542-0.463-2.314-0.691c-0.763-0.259-1.557-0.434-2.293-0.765l-2.236-0.929
			c-0.758-0.283-1.47-0.666-2.182-1.049l-2.145-1.133l-2.035-1.322c-0.681-0.439-1.366-0.874-1.982-1.402l-1.905-1.514
			c-0.638-0.502-1.185-1.107-1.781-1.658c-1.218-1.083-2.239-2.354-3.299-3.59c-0.559-0.598-0.973-1.306-1.453-1.963
			c-0.451-0.68-0.968-1.318-1.364-2.031c-0.77-1.439-1.659-2.823-2.232-4.362c-0.311-0.757-0.661-1.501-0.938-2.271l-0.717-2.354
			c-0.114-0.393-0.247-0.783-0.347-1.18l-0.229-1.21l-0.456-2.423l-0.197-2.457l-0.093-1.229l-0.023-0.308l0.012-0.369l0.021-0.595
			l0.084-2.378l0.011-0.297l0.006-0.148l0.002-0.074l0.002-0.037l0.019-0.178l0.084-0.589l0.167-1.178
			c0.148-1.544,0.619-3.202,1.021-4.833c0.21-0.814,0.535-1.564,0.8-2.35c0.273-0.779,0.544-1.561,0.926-2.295l1.062-2.239
			c0.405-0.718,0.84-1.421,1.26-2.132l0.641-1.061l0.729-1c0.493-0.662,0.964-1.343,1.478-1.989c1.108-1.22,2.132-2.53,3.378-3.619
			c0.609-0.557,1.181-1.159,1.823-1.677l1.943-1.537c0.631-0.537,1.344-0.958,2.028-1.418c0.699-0.439,1.363-0.939,2.093-1.327
			c1.458-0.773,2.883-1.624,4.426-2.225c3.003-1.401,6.219-2.251,9.443-2.978c3.263-0.534,6.56-0.937,9.886-0.787
			c0.799,0.029,1.572,0.019,2.393,0.081l2.527,0.287l1.264,0.149c0.418,0.059,0.816,0.161,1.226,0.239l2.442,0.508
			c0.815,0.162,1.598,0.458,2.399,0.682c0.79,0.26,1.608,0.441,2.376,0.769c1.537,0.641,3.123,1.18,4.585,1.997
			c0.74,0.385,1.495,0.747,2.224,1.155l2.125,1.334l1.06,0.675l1,0.761l2,1.527l-3.151,0.129l0.109-0.112l1.488-1.537l1.663,1.405
			c4.375,3.696,8.057,8.243,10.725,13.358c0.681,1.271,1.202,2.623,1.796,3.938l0.703,2.05c0.229,0.685,0.489,1.362,0.639,2.071
			l0.52,2.106l0.13,0.527l0.032,0.132c-0.007-0.057,0.046,0.225,0.046,0.242l0.039,0.251l0.157,1.005l0.313,2.012
			c0.079,0.707,0.112,1.477,0.167,2.213l0.071,1.117l0.033,0.559l0.009,0.141c0.005,0.018,0,0.355,0,0.272l-0.009,0.254
			l-0.067,2.034c-0.018,0.347-0.008,0.662-0.048,1.033l-0.146,1.136l-0.308,2.271c-0.615,2.855-1.369,5.694-2.551,8.337
			c-2.219,5.363-5.485,10.158-9.294,14.433c-1.95,2.102-3.993,4.126-6.291,5.91c-2.3,1.778-4.747,3.437-7.668,4.646l-1.885,0.77
			c-0.631,0.255-1.226,0.525-1.984,0.727c-1.437,0.412-2.892,0.912-4.327,1.224c-1.432,0.264-2.862,0.552-4.3,0.782l-4.356,0.355
			l-4.065,0.159c-1.352,0.055-2.732,0.079-4.017,0.207l-3.915,0.309c-1.311,0.134-2.629,0.31-3.943,0.461
			c-5.252,0.669-10.472,1.599-15.591,2.916c-2.578,0.588-5.096,1.397-7.63,2.132c-2.5,0.846-5.013,1.652-7.457,2.641
			c-4.914,1.902-9.722,4.082-14.313,6.639c-4.594,2.544-9.056,5.326-13.227,8.488c-4.174,3.153-8.106,6.604-11.737,10.329
			c-7.251,7.459-13.156,16.142-17.193,25.566c-2.021,4.713-3.458,9.644-4.406,14.643c-0.279,1.243-0.44,2.506-0.602,3.768
			l-0.255,1.889c-0.067,0.632-0.094,1.268-0.144,1.901c-0.074,1.268-0.227,2.531-0.196,3.804l-0.015,1.904l-0.009,0.952
			l-0.002,0.237l-0.002,0.119c-0.011-0.321,0.002-0.017,0.001-0.055l0.03,0.508l0.244,4.063c0.023,0.333,0.032,0.689,0.069,1.004
			l0.13,0.908l0.254,1.816l0.239,1.815c0.081,0.606,0.247,1.236,0.366,1.854c0.269,1.237,0.495,2.484,0.792,3.715
			c1.264,4.911,3.069,9.663,5.209,14.27c2.255,4.559,4.945,8.899,7.947,13.036c3.105,4.063,6.456,7.962,10.195,11.505
			c3.77,3.498,7.666,6.907,11.952,9.827l1.579,1.131c0.531,0.369,1.089,0.702,1.633,1.055l3.28,2.094l6.942,3.885
			c2.325,1.152,4.619,2.187,6.931,3.299c2.361,1.031,4.845,1.921,7.264,2.895c1.202,0.518,2.471,0.852,3.715,1.258l3.745,1.18
			l1.875,0.587l1.911,0.462l3.823,0.928c2.531,0.708,5.134,1.085,7.718,1.565c1.295,0.224,2.585,0.487,3.886,0.68l3.924,0.438
			l3.928,0.44c1.309,0.168,2.631,0.147,3.946,0.23l3.955,0.18l1.979,0.09c-0.016,0.003,0.211,0.002-0.004,0.009l0.127-0.003
			l0.255-0.006l0.509-0.012l1.018-0.023l4.07-0.08c1.319-0.064,2.579-0.193,3.875-0.284c1.294-0.124,2.563-0.141,3.883-0.351
			l3.936-0.519c5.265-0.748,10.426-1.777,15.68-3.071c5.085-1.212,10.306-2.859,15.208-4.601l3.795-1.479l1.898-0.737l0.949-0.366
			l0.899-0.409l3.608-1.641l1.811-0.821l0.453-0.206c0.076-0.022,0.28-0.142,0.414-0.207l0.902-0.472
			c2.456-1.239,4.72-2.549,6.988-3.922l3.362-2.167l3.239-2.346c4.207-3.264,8.125-6.972,11.223-11.368l0.848,0.531
			c-2.716,4.793-6.349,9.063-10.432,12.788l-3.14,2.714l-3.281,2.539c-2.262,1.614-4.595,3.195-6.894,4.578l-0.865,0.538
			c-0.163,0.097-0.245,0.162-0.475,0.285l-0.457,0.25l-1.829,1.003l-3.671,2.006c-1.226,0.714-2.455,1.2-3.688,1.798l-3.693,1.715
			l-0.462,0.215l-0.23,0.107l-0.307,0.127l-0.959,0.391l-1.919,0.781c-1.277,0.527-2.56,1.046-3.863,1.501l-3.901,1.413
			l-3.983,1.293c-5.2,1.615-10.647,2.97-16.082,4.034c-2.734,0.505-5.449,1.05-8.306,1.354c-1.405,0.172-2.84,0.381-4.227,0.517
			l-4.063,0.267l-1.017,0.063l-0.508,0.031l-0.254,0.016l-0.127,0.008l-0.259,0.004l-2.09-0.011l-4.185-0.024
			c-1.395-0.033-2.795,0.037-4.187-0.083l-4.18-0.301l-4.184-0.305c-1.39-0.15-2.772-0.372-4.16-0.557
			c-2.77-0.403-5.563-0.698-8.292-1.353l-4.115-0.883l-2.058-0.443l-2.027-0.571l-4.053-1.157c-1.347-0.4-2.717-0.729-4.028-1.245
			c-2.646-0.977-5.302-1.853-7.941-2.923c-2.616-1.16-5.297-2.305-7.86-3.504l-3.604-1.896l-1.8-0.95l-0.898-0.479l-0.448-0.24
			l-0.225-0.119l-0.269-0.152l-0.113-0.069l-3.618-2.229c-0.6-0.377-1.213-0.733-1.801-1.129l-1.751-1.211
			c-4.725-3.146-9.131-6.786-13.307-10.668c-4.156-3.918-7.921-8.254-11.411-12.81c-3.379-4.648-6.351-9.601-8.869-14.797
			c-2.418-5.247-4.352-10.723-5.693-16.357c-0.314-1.412-0.555-2.843-0.832-4.262c-0.125-0.718-0.289-1.408-0.379-2.147
			l-0.256-2.225l-0.241-2.225l-0.117-1.112c-0.03-0.36-0.029-0.684-0.045-1.027l-0.143-4.068l-0.018-0.509l-0.008-0.31l0.004-0.135
			l0.009-0.271l0.034-1.083l0.071-2.165c0.009-1.444,0.207-2.88,0.33-4.317c0.074-0.718,0.126-1.438,0.221-2.152l0.339-2.138
			c0.219-1.427,0.442-2.851,0.789-4.251c1.21-5.633,2.988-11.139,5.36-16.356c4.727-10.445,11.458-19.854,19.5-27.796
			c4.026-3.969,8.357-7.598,12.901-10.911c4.545-3.317,9.368-6.21,14.314-8.833c4.943-2.637,10.089-4.86,15.329-6.782
			c2.608-0.999,5.279-1.808,7.938-2.651c2.689-0.732,5.361-1.533,8.088-2.107c5.42-1.289,10.926-2.171,16.449-2.774
			c1.385-0.136,2.761-0.293,4.152-0.409l4.206-0.254c1.421-0.109,2.756-0.107,4.116-0.139l4.071-0.087l3.764-0.238
			c1.242-0.183,2.478-0.413,3.721-0.61c1.218-0.241,2.341-0.623,3.523-0.913c0.565-0.116,1.215-0.393,1.847-0.636l1.897-0.736
			c2.118-0.821,4.253-2.172,6.261-3.676c2.023-1.509,3.88-3.287,5.653-5.128c3.47-3.757,6.475-8.011,8.487-12.661
			c1.085-2.298,1.756-4.728,2.34-7.158l0.271-1.758l0.145-0.879c0.043-0.302,0.042-0.668,0.064-0.998l0.104-2.033l0.014-0.254
			c0.005-0.168,0.001,0.086-0.002,0.019l-0.006-0.114l-0.022-0.457l-0.041-0.916c-0.034-0.616-0.033-1.206-0.09-1.848l-0.277-2.017
			l-0.139-1.008l-0.034-0.253c-0.009-0.067,0.021,0.133-0.005-0.007l-0.026-0.116l-0.106-0.463l-0.423-1.853
			c-0.114-0.626-0.338-1.221-0.528-1.825l-0.582-1.813c-0.509-1.161-0.938-2.363-1.521-3.493c-2.253-4.56-5.424-8.681-9.262-12.082
			l3.15-0.132l-0.111,0.11l-1.482,1.461l-1.669-1.332l-1.753-1.398l-0.876-0.702l-0.935-0.623l-1.875-1.242
			c-0.646-0.38-1.318-0.717-1.976-1.08c-1.294-0.772-2.717-1.279-4.09-1.896c-0.686-0.316-1.424-0.489-2.133-0.743
			c-0.722-0.218-1.423-0.509-2.16-0.67l-2.206-0.51c-0.368-0.08-0.737-0.185-1.104-0.245l-1.096-0.151l-2.193-0.313
			c-0.758-0.077-1.575-0.087-2.359-0.134c-3.017-0.212-6.063,0.097-9.063,0.511c-2.967,0.606-5.944,1.309-8.729,2.539
			c-1.435,0.516-2.755,1.274-4.117,1.951c-0.681,0.34-1.297,0.79-1.95,1.178c-0.64,0.41-1.31,0.779-1.897,1.262l-1.822,1.373
			c-0.604,0.462-1.137,1.007-1.711,1.505c-1.177,0.974-2.134,2.161-3.188,3.259c-0.485,0.584-0.931,1.201-1.399,1.8l-0.696,0.905
			l-0.608,0.963l-1.207,1.936l-1.021,2.039c-0.371,0.667-0.633,1.381-0.9,2.093c-0.256,0.711-0.584,1.417-0.783,2.134
			c-0.38,1.443-0.847,2.826-1.045,4.446l-0.194,1.174l-0.097,0.587c0.004-0.051-0.019,0.164,0.008-0.104l-0.002,0.037l-0.004,0.074
			l-0.009,0.148l-0.018,0.297l-0.138,2.375l-0.035,0.594l-0.008,0.148l-0.005,0.074l-0.002,0.037c0-0.02-0.003,0.097-0.001-0.034
			l0.016,0.286l0.063,1.143l0.129,2.29l0.376,2.263l0.186,1.133c0.085,0.373,0.201,0.738,0.301,1.108l0.617,2.214
			c0.242,0.727,0.558,1.429,0.831,2.145c0.499,1.459,1.314,2.773,2.003,4.148c0.354,0.685,0.828,1.297,1.236,1.95
			c0.438,0.633,0.809,1.317,1.325,1.894c0.975,1.197,1.909,2.434,3.043,3.492c0.555,0.539,1.06,1.133,1.655,1.627l1.782,1.495
			c0.576,0.522,1.222,0.955,1.863,1.393l1.919,1.323l2.034,1.143c0.676,0.387,1.351,0.775,2.074,1.067l2.135,0.954
			c0.704,0.34,1.467,0.525,2.198,0.798c0.741,0.239,1.47,0.53,2.225,0.729l2.278,0.547l1.141,0.275
			c0.382,0.078,0.768,0.117,1.151,0.178l2.31,0.336c1.551,0.193,3.159,0.193,4.736,0.301L162.072,104.932z"/>
	</g>
	<g>
		<path fill="#FAE86F" d="M132.963,94.419c-3.154,2.958-6.471,5.71-9.914,8.323c-3.453,2.596-7.042,5.038-10.863,7.145
			c-1.904,1.062-3.89,2-5.937,2.824c-2.044,0.826-4.184,1.494-6.424,1.87c-2.231,0.374-4.597,0.466-6.941-0.081
			c-2.342-0.528-4.582-1.807-6.252-3.573l-1.173-1.38c-0.355-0.517-0.622-0.846-0.964-1.41c-0.634-1.025-1.264-2.109-1.491-3.625
			c-0.119-0.74-0.04-1.565,0.159-2.272c0.195-0.728,0.501-1.313,0.795-1.859c0.604-1.073,1.227-1.94,1.802-2.829
			c1.162-1.754,2.182-3.511,3.071-5.366c0.889-1.85,1.64-3.774,2.297-5.74c0.669-1.96,1.2-3.981,1.694-6.009
			c0.467-2.039,0.89-4.092,1.225-6.169c0.354-2.071,0.637-4.161,0.88-6.257c0.25-2.095,0.431-4.203,0.625-6.308l0.028,0.691
			c-0.03-0.3-0.044-0.607-0.041-0.912c0.001-0.183,0.011-0.255,0.018-0.319l0.022-0.224l0.092-0.892
			c0.064-0.59,0.115-1.212,0.214-1.741l0.531-3.297c0.342-2.208,0.815-4.324,1.217-6.491l0.628-3.233l0.079-0.404l0.039-0.202
			l0.066-0.291l0.189-0.794l0.38-1.589c0.27-1.067,0.472-2.101,0.796-3.195l1.046-3.313c0.319-1.122,0.761-2.181,1.202-3.242
			c0.457-1.057,0.826-2.145,1.36-3.176l1.613-3.094c0.537-1.033,1.256-1.979,1.881-2.972c0.331-0.486,0.632-0.993,0.991-1.46
			l1.129-1.373c0.764-0.906,1.475-1.861,2.369-2.655c0.87-0.811,1.68-1.697,2.611-2.438l2.832-2.181
			c0.995-0.644,2.015-1.25,3.025-1.873c0.5-0.328,1.023-0.594,1.557-0.842l1.588-0.771c0.532-0.25,1.057-0.528,1.597-0.751
			l1.632-0.623c1.093-0.397,2.174-0.874,3.285-1.162l3.321-0.976l3.342-0.753c1.114-0.274,2.229-0.448,3.346-0.633
			c1.115-0.175,2.234-0.399,3.349-0.533c2.227-0.261,4.462-0.578,6.681-0.73l3.34-0.278l3.261-0.217l13.039-0.886l0.157-0.011
			l0.213,0.008l5.649,0.217c1.896,0.155,3.786,0.237,5.691,0.456c1.908,0.247,3.812,0.394,5.729,0.776l2.876,0.503l2.878,0.683
			c1.926,0.395,3.824,1.123,5.736,1.717c0.946,0.351,1.879,0.777,2.818,1.168l1.407,0.603c0.46,0.227,0.909,0.485,1.364,0.729
			c0.905,0.5,1.821,0.979,2.714,1.507l2.574,1.782c0.884,0.564,1.648,1.282,2.442,1.967l1.18,1.042
			c0.4,0.341,0.781,0.699,1.12,1.097l2.105,2.322c0.365,0.379,0.676,0.792,0.975,1.214l0.915,1.254
			c1.291,1.643,2.266,3.43,3.278,5.206c0.543,0.877,0.911,1.805,1.343,2.715l1.253,2.746c0.668,1.86,1.402,3.714,1.985,5.592
			c0.514,1.899,1.05,3.727,1.534,5.688l1.229,5.369l0.59,2.69c0.193,0.904,0.359,1.894,0.539,2.836l0.528,2.86l0.212,1.628
			l0.1,0.816l0.024,0.203c0.011,0.096,0.021,0.367,0.023,0.543c0.005,0.397-0.014,0.797-0.056,1.187l0.028-1.376
			c0.242,2.07,0.464,4.146,0.739,6.201c0.272,2.058,0.585,4.104,0.964,6.125c0.361,2.028,0.806,4.023,1.292,5.997
			c0.511,1.96,1.056,3.909,1.727,5.778c0.649,1.88,1.365,3.716,2.215,5.463c0.852,1.76,1.801,3.393,2.941,5.102
			c0.568,0.874,1.193,1.725,1.912,2.958c0.182,0.337,0.355,0.621,0.537,1.038l0.258,0.592l0.232,0.693
			c0.291,0.939,0.422,2.119,0.281,3.133c-0.271,2.082-1.074,3.383-1.743,4.492c-0.175,0.282-0.352,0.559-0.529,0.801l-0.691,0.968
			l-1.054,1.22c-2.084,2.274-4.682,3.678-7.354,4.289c-2.674,0.611-5.272,0.498-7.658,0.066c-2.394-0.441-4.622-1.174-6.726-2.063
			c-2.106-0.888-4.128-1.882-6.054-2.996c-1.923-1.121-3.788-2.307-5.584-3.569c-1.795-1.265-3.566-2.546-5.256-3.927
			c-3.399-2.733-6.629-5.627-9.66-8.746l0.664-0.748c1.721,1.258,3.503,2.462,5.298,3.621c1.782,1.178,3.591,2.31,5.42,3.393
			c3.656,2.164,7.383,4.185,11.213,5.802c1.898,0.845,3.834,1.544,5.763,2.125c1.928,0.586,3.872,0.983,5.734,1.118
			c1.858,0.139,3.638,0.031,5.121-0.471c1.484-0.473,2.69-1.414,3.454-2.359l0.945-1.307c0.04-0.055-0.293,0.395-0.147,0.195
			l0.011-0.018l0.021-0.038l0.044-0.075l0.086-0.148l0.173-0.298c0.125-0.202,0.219-0.39,0.31-0.574
			c0.397-0.739,0.569-1.417,0.52-1.483c-0.006-0.053-0.023,0.037-0.059-0.043c-0.016-0.021-0.025-0.043-0.032-0.066l-0.084-0.137
			c-0.033-0.077-0.155-0.242-0.236-0.374c-0.402-0.601-1.089-1.456-1.758-2.336c-1.369-1.777-2.729-3.778-3.885-5.817
			c-1.164-2.047-2.169-4.156-3.044-6.291c-0.878-2.139-1.591-4.303-2.262-6.471c-0.643-2.17-1.229-4.348-1.723-6.529
			c-0.513-2.182-0.948-4.367-1.34-6.553c-0.41-2.186-0.716-4.373-1.015-6.564l0.028-1.377c-0.049,0.161-0.075,0.332-0.078,0.499
			l0.008,0.199l-0.023-0.137l-0.09-0.548l-0.171-1.099l-0.539-2.543c-0.188-0.856-0.34-1.675-0.553-2.562l-0.651-2.676l-1.254-5.363
			c-0.409-1.6-0.914-3.295-1.361-4.939c-0.53-1.618-1.1-3.201-1.648-4.803l-1.006-2.277c-0.344-0.752-0.633-1.548-1.061-2.234
			c-0.803-1.415-1.521-2.896-2.481-4.167l-0.674-0.995c-0.218-0.338-0.445-0.668-0.717-0.954l-1.538-1.807
			c-0.242-0.317-0.522-0.593-0.819-0.853l-0.861-0.808c-0.573-0.54-1.114-1.122-1.774-1.563l-1.891-1.441
			c-0.671-0.432-1.371-0.827-2.054-1.249c-0.346-0.205-0.681-0.425-1.034-0.621l-1.107-0.521c-0.742-0.341-1.464-0.721-2.224-1.041
			c-1.576-0.545-3.084-1.23-4.749-1.636l-2.453-0.696l-2.533-0.536c-1.672-0.403-3.433-0.595-5.156-0.882
			c-1.733-0.263-3.514-0.399-5.271-0.608l-5.348-0.392l0.37-0.002l-13.063,0.455l-3.265,0.119l-3.179,0.169
			c-2.134,0.08-4.222,0.318-6.328,0.498c-1.052,0.094-2.076,0.271-3.117,0.401c-1.038,0.139-2.081,0.268-3.089,0.487l-3.053,0.59
			l-2.973,0.779c-1.011,0.223-1.937,0.615-2.901,0.93l-1.438,0.494c-0.473,0.177-0.916,0.404-1.376,0.602l-1.371,0.613
			c-0.464,0.195-0.917,0.406-1.335,0.67l-2.579,1.484l-2.397,1.736c-0.794,0.587-1.471,1.311-2.219,1.955
			c-0.771,0.624-1.377,1.417-2.041,2.154l-0.986,1.117c-0.316,0.384-0.58,0.814-0.875,1.219c-0.554,0.836-1.199,1.606-1.689,2.495
			l-1.489,2.657c-0.499,0.886-0.854,1.864-1.292,2.791c-0.426,0.938-0.854,1.875-1.156,2.846l-1.018,2.886
			c-0.33,0.982-0.583,2.083-0.878,3.119l-0.428,1.577l-0.214,0.789l-0.026,0.099c0.007-0.033-0.026,0.107,0.015-0.066l-0.006,0.025
			l-0.011,0.049l-0.045,0.197l-0.089,0.396l-0.714,3.162c-0.455,2.104-0.997,4.229-1.383,6.315l-0.604,3.137
			c-0.117,0.54-0.161,1.005-0.232,1.496l-0.101,0.729l-0.026,0.183c-0.011,0.069-0.018,0.133-0.013,0.086
			c0-0.032-0.018-0.067-0.051-0.096l0.028,0.693c-0.259,2.162-0.518,4.323-0.866,6.479c-0.334,2.156-0.711,4.31-1.162,6.454
			c-0.433,2.146-0.957,4.28-1.531,6.404c-0.604,2.12-1.246,4.231-2.044,6.306c-0.784,2.076-1.675,4.125-2.723,6.105
			c-1.041,1.979-2.259,3.896-3.538,5.672c-0.628,0.887-1.283,1.749-1.761,2.529c-0.477,0.811-0.707,1.367-0.629,1.975
			c0.043,0.625,0.428,1.498,0.896,2.297c0.19,0.368,0.567,0.9,0.804,1.279l0.871,1.105c1.234,1.396,2.826,2.4,4.652,2.896
			c1.824,0.504,3.833,0.528,5.832,0.27c2.005-0.256,4.015-0.791,5.975-1.5c1.962-0.703,3.9-1.527,5.783-2.484
			c3.786-1.873,7.421-4.108,10.938-6.516c3.507-2.42,6.927-5.008,10.163-7.78L132.963,94.419z"/>
	</g>
</g>
</svg>
