<?xml version="1.0" encoding="utf-8"?>
<!-- Generator: Adobe Illustrator 16.0.0, SVG Export Plug-In . SVG Version: 6.00 Build 0)  -->
<!DOCTYPE svg PUBLIC "-//W3C//DTD SVG 1.1//EN" "http://www.w3.org/Graphics/SVG/1.1/DTD/svg11.dtd">
<svg version="1.1" id="Layer_1" xmlns="http://www.w3.org/2000/svg" xmlns:xlink="http://www.w3.org/1999/xlink" x="0px" y="0px"
	 width="300px" height="300px" viewBox="0 0 300 300" enable-background="new 0 0 300 300" xml:space="preserve">
<g>
	<g>
		<g>
			<path fill="#F2DFDB" d="M183.186,222.926l-1.299-1.361l-1.229-1.522c-0.377-0.528-0.723-1.074-1.088-1.615
				c-0.334-0.557-0.627-1.14-0.943-1.714c-0.287-0.586-0.522-1.199-0.785-1.803c-0.238-0.612-0.409-1.25-0.615-1.88
				c-0.182-0.635-0.279-1.292-0.422-1.941c-0.127-0.651-0.152-1.317-0.23-1.979c-0.013-0.188-0.043-0.281-0.04-0.55l-0.004-0.47
				l-0.007-0.94c-0.008-0.625,0.094-1.357,0.144-2.036c0.077-0.684,0.226-1.329,0.339-1.998c0.154-0.655,0.35-1.302,0.527-1.955
				l0.747-1.853c0.3-0.612,0.594-1.242,0.91-1.844c0.336-0.574,0.653-1.165,1.012-1.729l0.557-0.834l0.28-0.417l0.069-0.104
				l0.035-0.052l0.087-0.112l0.14-0.189l-0.041,0.05c1.995-2.596,4.337-4.951,7.041-6.867c0.665-0.491,1.397-0.881,2.098-1.324
				l1.065-0.646c0.365-0.194,0.746-0.357,1.121-0.538c0.752-0.349,1.506-0.705,2.271-1.033l2.37-0.79
				c0.786-0.295,1.601-0.465,2.419-0.632c0.818-0.161,1.633-0.376,2.461-0.486l2.499-0.247l0.626-0.06l0.314-0.029l0.431-0.002
				l1.149,0.003c1.434-0.061,3.307,0.155,5.033,0.359l2.495,0.492c0.835,0.161,1.636,0.453,2.456,0.686
				c3.237,1.051,6.34,2.586,9.156,4.581c2.787,2.035,5.275,4.519,7.309,7.374c2.012,2.858,3.657,6.063,4.563,9.521
				c0.437,1.723,0.857,3.479,0.981,5.268l0.132,1.342l0.017,0.168l-0.002,0.388l0.002,0.287l0.002,0.575l0.004,1.15l0.002,0.575
				c-0.003,0.201-0.039,0.472-0.059,0.705c-0.096,0.964-0.197,1.947-0.332,2.904l-0.586,2.665c-0.497,1.746-1.066,3.495-1.893,5.122
				c-1.559,3.299-3.748,6.285-6.355,8.81l-2.058,1.775c-0.698,0.575-1.459,1.066-2.19,1.597c-0.73,0.533-1.544,0.931-2.327,1.373
				l-1.185,0.646l-1.232,0.543c-3.271,1.463-6.78,2.369-10.303,2.629c-0.439,0.038-0.877,0.1-1.316,0.114l-1.319,0.012l-1.315-0.004
				l-0.803-0.012l-0.574-0.056c-0.787-0.084-1.45-0.115-2.437-0.278c-0.916-0.137-1.839-0.285-2.659-0.508
				c-3.384-0.786-6.605-2.144-9.489-3.952c-2.868-1.832-5.427-4.097-7.424-6.746c-2.021-2.617-3.527-5.579-4.343-8.652l0.901-0.434
				c1.864,2.44,3.987,4.516,6.294,6.232c1.155,0.855,2.377,1.592,3.594,2.284c0.627,0.32,1.257,0.627,1.887,0.919
				c0.654,0.25,1.28,0.537,1.933,0.764c2.593,0.939,5.269,1.481,7.931,1.676c0.684,0.077,1.29,0.046,1.898,0.059
				c0.535,0.035,1.408-0.026,2.15-0.052l0.576-0.024l0.035-0.001c0.047,0-0.271-0.005-0.122-0.005l0.062-0.009l0.123-0.018
				l0.246-0.035l0.979-0.132l0.975-0.115c0.324-0.048,0.641-0.14,0.959-0.205c0.633-0.159,1.278-0.242,1.893-0.45l1.849-0.568
				c1.191-0.486,2.384-0.944,3.501-1.557l0.85-0.426l0.803-0.511c0.527-0.347,1.091-0.64,1.57-1.053
				c0.498-0.382,1.035-0.717,1.512-1.124l1.409-1.24c1.806-1.729,3.347-3.699,4.587-5.847c0.641-1.067,1.113-2.214,1.59-3.366
				l0.583-1.779c0.123-0.552,0.233-1.087,0.372-1.637c0.031-0.146,0.076-0.252,0.098-0.433l0.053-0.572l0.104-1.146l0.053-0.573
				l0.025-0.286l0.006-0.071l0.004-0.036c0.002-0.065-0.008,0.434-0.004,0.209l-0.002-0.119l-0.016-0.952
				c-0.01-0.635,0.02-1.279-0.094-1.907c-0.098-0.628-0.104-1.279-0.263-1.899c-0.462-2.527-1.503-4.95-2.876-7.177
				c-1.385-2.226-3.156-4.244-5.219-5.962c-2.093-1.679-4.459-3.042-6.99-4.041c-0.644-0.22-1.264-0.524-1.925-0.695l-1.981-0.551
				c-1.303-0.227-2.459-0.533-4.098-0.598l-1.146-0.088l-0.144-0.011l-0.072-0.006c0.051,0.001-0.163-0.004,0.105,0l-0.033,0.001
				l-0.26,0.008l-0.52,0.014l-2.088,0.045c-0.695,0.038-1.378,0.176-2.071,0.255c-0.694,0.086-1.39,0.17-2.059,0.373l-2.038,0.509
				l-1.973,0.725c-0.329,0.124-0.667,0.23-0.99,0.368l-0.943,0.471c-0.622,0.326-1.282,0.597-1.883,0.966
				c-2.442,1.433-4.626,3.277-6.568,5.379l-0.041,0.05l-0.154,0.177l-0.02,0.022l-0.006,0.005c-0.047,0.059,0.061-0.073,0.047-0.058
				l-0.008,0.011l-0.034,0.043l-0.068,0.085l-0.273,0.342l-0.55,0.685c-0.355,0.465-0.674,0.956-1.016,1.434l-0.891,1.455
				l-0.807,1.568c-0.193,0.542-0.412,1.08-0.596,1.63c-0.14,0.557-0.325,1.123-0.437,1.677c-0.083,0.566-0.226,1.069-0.274,1.696
				l-0.074,0.938l-0.037,0.469c-0.013,0.045,0.001,0.265,0,0.389c0.021,0.585-0.014,1.18,0.051,1.765
				c0.078,0.583,0.111,1.178,0.223,1.759c0.131,0.577,0.223,1.168,0.381,1.742c0.186,0.566,0.34,1.147,0.548,1.709
				c0.237,0.55,0.45,1.115,0.707,1.662c0.286,0.529,0.558,1.075,0.856,1.6l0.983,1.515l1.155,1.485L183.186,222.926z"/>
		</g>
		<g>
			<path fill="#F2DFDB" d="M77.406,213.824c0,0,1.377-1.37,3.787-3.768c0.572-0.623,1.345-1.2,2.148-1.868
				c0.818-0.66,1.702-1.374,2.647-2.136c0.238-0.191,0.48-0.387,0.726-0.584c0.264-0.183,0.531-0.367,0.803-0.556
				c0.519-0.354,1.052-0.72,1.6-1.095c0.551-0.372,1.102-0.764,1.693-1.146c0.625-0.361,1.264-0.731,1.917-1.109
				c0.657-0.377,1.329-0.763,2.013-1.155c0.691-0.374,1.41-0.697,2.135-1.058c0.729-0.354,1.47-0.713,2.222-1.078
				c0.759-0.352,1.557-0.64,2.354-0.971c0.802-0.32,1.615-0.646,2.438-0.976c0.844-0.27,1.699-0.543,2.563-0.819
				c0.869-0.266,1.741-0.568,2.637-0.811c0.904-0.217,1.816-0.437,2.736-0.657c3.684-0.898,7.586-1.445,11.58-1.714l0.75-0.063
				l0.843-0.02l1.439-0.025c0.962-0.017,1.927-0.032,2.894-0.049c1.041,0.053,2.083,0.105,3.127,0.158
				c1.044,0.058,2.108,0.092,3.11,0.24c2.036,0.228,4.081,0.446,6.096,0.833c1.01,0.18,2.028,0.327,3.03,0.539
				c0.998,0.235,1.993,0.471,2.984,0.705l1.489,0.354l1.455,0.444c0.971,0.292,1.93,0.611,2.883,0.927
				c0.951,0.325,1.866,0.727,2.781,1.11c0.909,0.397,1.832,0.753,2.691,1.221c0.86,0.466,1.719,0.919,2.553,1.396
				c0.416,0.239,0.84,0.461,1.244,0.712c0.395,0.266,0.787,0.53,1.179,0.793c0.784,0.521,1.54,1.065,2.295,1.588
				c0.753,0.525,1.426,1.147,2.125,1.704c0.69,0.57,1.372,1.128,2.021,1.703c0.622,0.606,1.234,1.204,1.837,1.792
				c0.585,0.604,1.185,1.165,1.721,1.772c0.534,0.609,1.046,1.219,1.542,1.814c0.49,0.604,1.002,1.158,1.436,1.761
				c0.428,0.607,0.845,1.199,1.252,1.777c0.395,0.58,0.78,1.146,1.154,1.694c0.355,0.563,0.668,1.134,0.976,1.68
				c0.604,1.099,1.204,2.087,1.64,3.08c0.437,0.992,0.834,1.894,1.169,2.717c0.364,0.803,0.585,1.579,0.789,2.24
				c0.207,0.659,0.378,1.218,0.499,1.679c0.258,0.911,0.371,1.401,0.371,1.401l-0.883,0.469c0,0-0.371-0.348-1.023-1.009
				c-0.685-0.641-1.525-1.666-2.771-2.819c-0.617-0.58-1.273-1.231-1.984-1.93c-0.689-0.714-1.557-1.389-2.381-2.168
				c-0.42-0.381-0.854-0.774-1.301-1.179c-0.467-0.38-0.949-0.771-1.442-1.172c-0.483-0.404-0.978-0.818-1.484-1.242
				c-0.513-0.414-1.066-0.807-1.612-1.223c-0.551-0.411-1.109-0.83-1.664-1.269c-0.562-0.432-1.186-0.811-1.787-1.229
				c-0.598-0.419-1.206-0.845-1.824-1.277c-0.641-0.396-1.291-0.8-1.951-1.207c-1.287-0.855-2.688-1.605-4.088-2.409
				c-1.37-0.854-2.886-1.524-4.338-2.36c-0.722-0.43-1.515-0.735-2.268-1.137c-0.77-0.364-1.515-0.805-2.304-1.162
				c-0.793-0.348-1.593-0.696-2.389-1.075l-1.203-0.56l-1.242-0.477c-0.833-0.322-1.67-0.645-2.509-0.969
				c-0.848-0.302-1.721-0.534-2.586-0.809c-1.723-0.598-3.521-0.905-5.308-1.308c-0.903-0.219-1.775-0.313-2.657-0.442l-2.646-0.383
				c-0.962-0.068-1.922-0.136-2.88-0.203l-1.436-0.1l-0.591-0.041l-0.681-0.001c-3.627-0.038-7.229,0.037-10.682,0.507
				c-0.866,0.112-1.724,0.223-2.574,0.332c-0.847,0.135-1.673,0.33-2.5,0.488c-0.827,0.169-1.644,0.336-2.451,0.502
				c-0.796,0.215-1.583,0.428-2.358,0.638c-0.774,0.219-1.554,0.396-2.299,0.64c-0.741,0.257-1.47,0.51-2.188,0.759
				c-0.715,0.255-1.438,0.48-2.115,0.748c-0.667,0.285-1.322,0.563-1.963,0.837c-0.646,0.273-1.279,0.541-1.897,0.803
				c-0.622,0.296-1.229,0.618-1.821,0.913c-0.592,0.301-1.168,0.593-1.729,0.877c-0.265,0.137-0.526,0.271-0.784,0.402
				c-0.252,0.154-0.5,0.306-0.744,0.455c-0.983,0.6-1.904,1.161-2.755,1.68c-0.854,0.527-1.671,0.958-2.336,1.502
				c-2.729,2.026-4.289,3.185-4.289,3.185L77.406,213.824z"/>
		</g>
		<g>
			<path fill="#F2DFDB" d="M138.029,293.821c-1.236,0.041-2.446,0.151-3.703,0.135l-1.905-0.051
				c-0.639-0.013-1.262-0.121-1.898-0.179c-2.535-0.287-5.022-1.021-7.37-1.773c-2.34-0.762-4.639-1.399-7.026-2.09
				c-2.382-0.705-4.761-1.421-7.12-2.2c-4.734-1.525-9.41-3.289-14.026-5.285c-2.307-1.002-4.589-2.087-6.854-3.233
				c-2.247-1.185-4.463-2.454-6.64-3.825c-4.329-2.778-8.507-5.987-12.179-9.962c-1.844-1.973-3.583-4.12-5.068-6.505
				c-1.471-2.385-2.752-4.975-3.587-7.741c-0.875-2.753-1.322-5.657-1.363-8.535l0.028-1.134l0.041-0.921l0.041-0.92
				c0.03-0.354,0.082-0.744,0.129-1.114l0.304-2.24l0.475-2.066l0.248-1.026l0.328-1.003l0.669-1.992
				c0.267-0.646,0.538-1.289,0.822-1.925l0.422-0.953l0.487-0.919c0.327-0.61,0.645-1.224,0.986-1.821l1.123-1.729l0.563-0.856
				l0.624-0.811l1.254-1.604l0.316-0.403l0.14-0.143c0.459-0.467,1.122-0.854,1.752-1.023l-2.088,1.42
				c1.323-1.323,2.646-2.629,3.993-3.889c1.443-1.17,2.897-2.306,4.356-3.402l-0.31,0.355c0.203-0.259,0.461-0.498,0.732-0.68
				l-0.259,0.202c1.535-0.898,3.076-1.752,4.61-2.556c1.635-0.655,3.244-1.299,4.871-1.838l0.505,0.863
				c-1.159,1.273-2.336,2.441-3.487,3.598c-1.073,1.256-2.117,2.494-3.178,3.669l-0.26,0.202c0.212-0.129,0.411-0.314,0.555-0.52
				l-0.31,0.355c-0.971,1.41-1.946,2.781-2.932,4.118c-0.869,1.438-1.756,2.833-2.646,4.209l-2.089,1.421
				c0.614-0.153,1.259-0.522,1.701-0.973l0.456-0.546c-0.983,2.009-1.956,3.979-2.599,6.047l-0.273,0.76l-0.209,0.778
				c-0.135,0.519-0.288,1.029-0.437,1.539c-0.186,1.048-0.484,2.065-0.585,3.114l-0.221,1.552l-0.107,1.423
				c-0.131,0.728-0.059,2.558-0.123,3.27c0.036,2.036,0.257,4.035,0.662,6.026c0.44,1.979,1.044,3.963,1.945,5.882
				c0.885,1.924,2.047,3.775,3.382,5.545c1.357,1.752,2.873,3.438,4.549,5.003c1.674,1.568,3.462,3.056,5.328,4.474
				c3.765,2.798,7.815,5.336,12.017,7.676c2.109,1.155,4.244,2.284,6.424,3.34c2.175,1.063,4.37,2.106,6.594,3.098
				c2.219,1.006,4.466,1.951,6.716,2.887c2.26,0.909,4.604,1.886,6.841,2.913c2.23,1.021,4.405,1.92,6.712,2.499
				c0.578,0.127,1.154,0.309,1.741,0.395l1.766,0.279c1.192,0.174,2.444,0.223,3.663,0.34L138.029,293.821z"/>
		</g>
	</g>
	<g>
		<path fill="#F2DFDB" d="M151.124,104.932c-1.589-0.064-3.165-0.021-4.764-0.174l-2.409-0.283c-0.4-0.052-0.807-0.085-1.203-0.154
			l-1.18-0.25l-2.362-0.503c-0.783-0.185-1.542-0.463-2.315-0.69c-0.762-0.259-1.557-0.434-2.293-0.765l-2.236-0.928
			c-0.758-0.284-1.469-0.667-2.182-1.049l-2.145-1.133L126,97.679c-0.681-0.439-1.365-0.874-1.982-1.401l-1.904-1.514
			c-0.638-0.502-1.185-1.108-1.782-1.658c-1.218-1.083-2.239-2.353-3.299-3.59c-0.559-0.597-0.972-1.305-1.454-1.963
			c-0.451-0.679-0.967-1.317-1.363-2.031c-0.77-1.439-1.66-2.823-2.233-4.362c-0.311-0.757-0.661-1.5-0.938-2.271l-0.716-2.353
			c-0.115-0.394-0.248-0.783-0.347-1.181l-0.229-1.209l-0.456-2.422l-0.198-2.457l-0.093-1.23l-0.023-0.308l0.012-0.369l0.021-0.595
			l0.084-2.377l0.01-0.297l0.005-0.149l0.002-0.074l0.001-0.037l0.019-0.177l0.084-0.589l0.167-1.178
			c0.148-1.543,0.619-3.202,1.02-4.833c0.21-0.814,0.536-1.564,0.799-2.35c0.274-0.779,0.545-1.561,0.926-2.294l1.062-2.239
			c0.405-0.718,0.84-1.421,1.26-2.132l0.64-1.061l0.73-1c0.493-0.662,0.964-1.343,1.478-1.989c1.108-1.22,2.132-2.53,3.378-3.619
			c0.609-0.557,1.181-1.159,1.823-1.677l1.943-1.537c0.631-0.537,1.344-0.958,2.029-1.418c0.698-0.439,1.363-0.939,2.092-1.327
			c1.458-0.773,2.883-1.624,4.426-2.225c3.003-1.401,6.219-2.251,9.444-2.978c3.263-0.534,6.559-0.937,9.885-0.787
			c0.8,0.029,1.572,0.019,2.393,0.081l2.527,0.287l1.265,0.149c0.417,0.059,0.816,0.161,1.226,0.239l2.441,0.508
			c0.816,0.162,1.599,0.458,2.4,0.682c0.789,0.26,1.607,0.441,2.375,0.769c1.537,0.641,3.124,1.18,4.585,1.997
			c0.741,0.385,1.495,0.747,2.224,1.155l2.126,1.334l1.059,0.675l1.001,0.761l2,1.527l-3.151,0.129l0.108-0.112l1.488-1.537
			l1.663,1.405c4.376,3.696,8.058,8.243,10.725,13.358c0.681,1.271,1.202,2.623,1.796,3.938l0.703,2.05
			c0.229,0.685,0.49,1.362,0.639,2.071l0.521,2.106l0.129,0.527l0.032,0.132c-0.006-0.056,0.046,0.225,0.047,0.242l0.039,0.251
			l0.156,1.005l0.313,2.011c0.078,0.708,0.112,1.477,0.166,2.213l0.071,1.117l0.034,0.559l0.009,0.14
			c0.004,0.018,0,0.356-0.001,0.273l-0.009,0.254l-0.066,2.035c-0.018,0.346-0.008,0.662-0.049,1.033l-0.145,1.135l-0.308,2.271
			c-0.616,2.855-1.369,5.694-2.552,8.337c-2.219,5.363-5.485,10.158-9.294,14.432c-1.95,2.102-3.993,4.126-6.29,5.91
			c-2.301,1.778-4.748,3.437-7.668,4.645l-1.885,0.77c-0.631,0.255-1.227,0.526-1.984,0.727c-1.438,0.412-2.893,0.912-4.328,1.224
			c-1.432,0.264-2.861,0.551-4.299,0.783l-4.356,0.355l-4.066,0.159c-1.352,0.055-2.732,0.08-4.016,0.207l-3.916,0.309
			c-1.311,0.133-2.629,0.309-3.943,0.46c-5.252,0.669-10.472,1.6-15.591,2.917c-2.578,0.588-5.095,1.397-7.629,2.132
			c-2.5,0.846-5.013,1.652-7.458,2.641c-4.914,1.902-9.722,4.081-14.313,6.638c-4.593,2.544-9.056,5.327-13.227,8.489
			c-4.174,3.153-8.107,6.604-11.737,10.33c-7.251,7.458-13.157,16.141-17.193,25.565c-2.021,4.713-3.458,9.644-4.406,14.643
			c-0.279,1.243-0.44,2.506-0.602,3.768l-0.254,1.889c-0.068,0.632-0.094,1.268-0.144,1.901c-0.074,1.268-0.227,2.53-0.196,3.804
			l-0.015,1.904l-0.009,0.952l-0.002,0.237l-0.001,0.119c-0.011-0.321,0.001-0.017,0-0.055l0.031,0.508l0.244,4.063
			c0.024,0.333,0.032,0.689,0.069,1.004l0.13,0.908l0.254,1.816l0.239,1.815c0.081,0.606,0.248,1.236,0.366,1.854
			c0.269,1.237,0.496,2.484,0.792,3.715c1.264,4.911,3.07,9.663,5.209,14.27c2.255,4.559,4.945,8.899,7.948,13.036
			c3.106,4.063,6.456,7.962,10.195,11.505c3.77,3.498,7.667,6.907,11.952,9.827l1.579,1.131c0.532,0.369,1.09,0.702,1.633,1.055
			l3.281,2.094l6.941,3.885c2.326,1.152,4.62,2.187,6.931,3.299c2.361,1.031,4.845,1.921,7.263,2.895
			c1.203,0.518,2.472,0.852,3.715,1.258L116,284.5l1.875,0.587l1.911,0.462l3.823,0.928c2.531,0.708,5.133,1.085,7.718,1.565
			c1.295,0.224,2.585,0.487,3.886,0.68l3.923,0.438l3.928,0.44c1.309,0.168,2.63,0.147,3.946,0.23l3.955,0.18l1.979,0.09
			c-0.016,0.003,0.21,0.002-0.004,0.009l0.127-0.003l0.254-0.006l0.51-0.012l1.018-0.023l4.07-0.08
			c1.318-0.064,2.578-0.193,3.874-0.284c1.294-0.124,2.563-0.141,3.884-0.351l3.936-0.519c5.265-0.748,10.425-1.777,15.68-3.071
			c5.084-1.212,10.305-2.859,15.207-4.601l3.795-1.479l1.898-0.737l0.949-0.366l0.9-0.409l3.608-1.641l1.81-0.821l0.453-0.206
			c0.077-0.022,0.281-0.142,0.414-0.207l0.903-0.472c2.455-1.239,4.72-2.549,6.987-3.922l3.362-2.167l3.239-2.346
			c4.207-3.264,8.125-6.972,11.224-11.368l0.847,0.531c-2.716,4.793-6.348,9.063-10.432,12.788l-3.14,2.714l-3.281,2.539
			c-2.261,1.614-4.594,3.195-6.894,4.578l-0.864,0.538c-0.163,0.097-0.245,0.162-0.476,0.285l-0.457,0.25l-1.829,1.003l-3.671,2.006
			c-1.225,0.714-2.455,1.2-3.687,1.798l-3.694,1.715l-0.461,0.215l-0.231,0.107l-0.306,0.127l-0.959,0.391l-1.92,0.781
			c-1.277,0.527-2.559,1.046-3.863,1.501l-3.901,1.413l-3.982,1.293c-5.201,1.615-10.647,2.97-16.082,4.034
			c-2.735,0.505-5.45,1.05-8.306,1.354c-1.406,0.172-2.841,0.381-4.227,0.517l-4.063,0.267l-1.017,0.063l-0.508,0.031l-0.254,0.016
			l-0.127,0.008l-0.258,0.004l-2.091-0.011l-4.184-0.024c-1.395-0.033-2.795,0.037-4.186-0.083l-4.18-0.301l-4.184-0.305
			c-1.39-0.15-2.772-0.372-4.16-0.557c-2.77-0.403-5.563-0.698-8.293-1.353l-4.115-0.883l-2.058-0.443l-2.027-0.571l-4.053-1.157
			c-1.347-0.4-2.717-0.729-4.028-1.245c-2.646-0.977-5.302-1.853-7.941-2.923c-2.616-1.16-5.297-2.305-7.86-3.504l-3.604-1.896
			l-1.8-0.95l-0.898-0.479l-0.449-0.24l-0.225-0.119l-0.269-0.152l-0.113-0.069l-3.619-2.229c-0.6-0.377-1.213-0.733-1.801-1.129
			l-1.75-1.211c-4.725-3.146-9.13-6.786-13.307-10.668c-4.156-3.918-7.92-8.254-11.41-12.81c-3.379-4.648-6.351-9.601-8.87-14.797
			c-2.418-5.247-4.352-10.723-5.693-16.357c-0.315-1.412-0.556-2.843-0.833-4.262c-0.124-0.718-0.289-1.408-0.378-2.147
			l-0.256-2.225l-0.241-2.225l-0.117-1.112c-0.03-0.36-0.029-0.684-0.045-1.027l-0.143-4.068l-0.018-0.509l-0.008-0.31l0.004-0.135
			l0.008-0.271l0.034-1.083l0.071-2.165c0.009-1.444,0.208-2.88,0.33-4.317c0.075-0.718,0.127-1.438,0.221-2.152l0.339-2.138
			c0.219-1.427,0.443-2.851,0.789-4.251c1.21-5.633,2.988-11.139,5.361-16.356c4.727-10.445,11.457-19.854,19.5-27.795
			c4.026-3.969,8.357-7.598,12.901-10.912c4.544-3.317,9.369-6.21,14.314-8.833c4.943-2.636,10.088-4.86,15.329-6.782
			c2.609-1,5.28-1.808,7.938-2.651c2.689-0.732,5.362-1.533,8.088-2.107c5.419-1.29,10.925-2.171,16.449-2.775
			c1.384-0.136,2.76-0.293,4.151-0.409l4.207-0.254c1.421-0.109,2.756-0.107,4.116-0.139l4.071-0.086l3.764-0.238
			c1.242-0.183,2.479-0.413,3.721-0.611c1.219-0.241,2.342-0.623,3.523-0.913c0.566-0.116,1.216-0.392,1.847-0.635l1.897-0.736
			c2.119-0.822,4.254-2.172,6.262-3.676c2.023-1.509,3.879-3.288,5.652-5.128c3.471-3.757,6.475-8.011,8.488-12.661
			c1.085-2.298,1.755-4.728,2.34-7.158l0.27-1.758l0.145-0.879c0.044-0.301,0.042-0.667,0.065-0.998l0.104-2.033l0.013-0.254
			c0.006-0.168,0.002,0.086-0.002,0.019l-0.005-0.114l-0.022-0.457l-0.042-0.916c-0.034-0.617-0.033-1.207-0.089-1.848l-0.277-2.017
			l-0.139-1.008l-0.035-0.252c-0.008-0.068,0.021,0.132-0.004-0.007l-0.027-0.116l-0.105-0.463l-0.423-1.853
			c-0.114-0.625-0.339-1.221-0.528-1.826l-0.582-1.813c-0.51-1.161-0.938-2.363-1.521-3.493c-2.252-4.56-5.424-8.681-9.262-12.082
			l3.15-0.132l-0.111,0.11l-1.481,1.461l-1.669-1.332l-1.754-1.398l-0.875-0.702l-0.936-0.623l-1.875-1.242
			c-0.646-0.38-1.318-0.717-1.975-1.08c-1.295-0.771-2.718-1.279-4.091-1.896c-0.685-0.316-1.423-0.489-2.133-0.743
			c-0.721-0.218-1.422-0.509-2.159-0.67l-2.207-0.51c-0.367-0.08-0.736-0.185-1.103-0.245l-1.097-0.151l-2.193-0.313
			c-0.758-0.077-1.574-0.087-2.359-0.134c-3.017-0.212-6.062,0.097-9.063,0.511c-2.967,0.606-5.945,1.309-8.729,2.539
			c-1.435,0.516-2.755,1.275-4.117,1.951c-0.681,0.34-1.297,0.79-1.95,1.178c-0.64,0.41-1.31,0.779-1.897,1.262l-1.822,1.373
			c-0.604,0.462-1.138,1.007-1.711,1.505c-1.176,0.974-2.134,2.161-3.188,3.259c-0.485,0.584-0.93,1.201-1.399,1.8l-0.696,0.905
			l-0.608,0.963l-1.208,1.936l-1.021,2.039c-0.371,0.667-0.632,1.381-0.9,2.093c-0.255,0.711-0.584,1.417-0.784,2.134
			c-0.379,1.443-0.847,2.826-1.044,4.446l-0.194,1.174l-0.097,0.587c0.004-0.051-0.019,0.165,0.008-0.104l-0.002,0.037l-0.004,0.074
			l-0.008,0.148l-0.018,0.297l-0.138,2.375l-0.034,0.594l-0.009,0.148l-0.004,0.074l-0.002,0.037c0-0.02-0.003,0.097-0.001-0.034
			l0.016,0.286l0.063,1.144l0.129,2.29l0.375,2.263l0.186,1.133c0.085,0.373,0.202,0.738,0.301,1.108l0.617,2.214
			c0.243,0.726,0.557,1.428,0.832,2.145c0.499,1.458,1.314,2.772,2.002,4.148c0.354,0.684,0.829,1.296,1.236,1.95
			c0.438,0.633,0.809,1.317,1.325,1.894c0.975,1.196,1.909,2.433,3.043,3.492c0.555,0.538,1.06,1.133,1.656,1.627l1.782,1.495
			c0.576,0.523,1.221,0.955,1.863,1.393l1.919,1.324l2.034,1.143c0.676,0.387,1.351,0.775,2.075,1.067l2.135,0.954
			c0.703,0.341,1.466,0.526,2.197,0.798c0.742,0.24,1.47,0.53,2.225,0.729l2.278,0.548l1.141,0.275
			c0.382,0.077,0.768,0.117,1.152,0.177l2.309,0.336c1.551,0.193,3.159,0.193,4.736,0.3L151.124,104.932z"/>
	</g>
	<g>
		<path fill="#F2DFDB" d="M122.014,94.419c-3.154,2.958-6.471,5.71-9.915,8.323c-3.453,2.596-7.042,5.038-10.863,7.145
			c-1.905,1.062-3.89,2-5.937,2.824c-2.044,0.827-4.184,1.494-6.424,1.871c-2.231,0.375-4.597,0.466-6.941-0.082
			c-2.341-0.528-4.582-1.807-6.251-3.573l-1.173-1.38c-0.356-0.516-0.622-0.846-0.964-1.409c-0.633-1.026-1.263-2.109-1.49-3.625
			c-0.12-0.74-0.041-1.566,0.159-2.273c0.195-0.728,0.501-1.313,0.795-1.859c0.605-1.073,1.227-1.94,1.802-2.829
			c1.163-1.753,2.181-3.511,3.071-5.366c0.889-1.85,1.64-3.775,2.296-5.74c0.67-1.96,1.201-3.981,1.694-6.009
			c0.468-2.039,0.89-4.092,1.226-6.168c0.354-2.071,0.637-4.161,0.879-6.257c0.25-2.095,0.431-4.203,0.625-6.308l0.028,0.691
			c-0.03-0.3-0.043-0.607-0.04-0.912c0-0.182,0.01-0.254,0.017-0.32l0.022-0.223l0.092-0.892c0.064-0.59,0.115-1.211,0.214-1.74
			l0.531-3.297c0.342-2.208,0.815-4.324,1.217-6.491l0.628-3.233l0.079-0.404l0.039-0.202l0.066-0.291l0.19-0.794l0.38-1.589
			c0.269-1.067,0.471-2.101,0.796-3.195l1.045-3.313c0.319-1.122,0.761-2.181,1.203-3.242c0.457-1.057,0.825-2.145,1.36-3.176
			l1.613-3.094c0.537-1.033,1.256-1.979,1.88-2.972c0.332-0.486,0.632-0.993,0.992-1.46l1.129-1.373
			c0.764-0.906,1.475-1.861,2.37-2.655c0.87-0.811,1.68-1.697,2.611-2.438l2.832-2.181c0.995-0.644,2.014-1.25,3.025-1.873
			c0.5-0.328,1.024-0.594,1.557-0.842l1.588-0.771c0.532-0.25,1.056-0.528,1.596-0.751l1.632-0.623
			c1.092-0.397,2.173-0.874,3.285-1.162l3.321-0.976l3.341-0.753c1.115-0.274,2.23-0.448,3.347-0.633
			c1.115-0.175,2.234-0.399,3.348-0.533c2.227-0.261,4.462-0.578,6.68-0.73l3.34-0.278l3.26-0.217l13.039-0.886l0.158-0.011
			l0.213,0.008l5.649,0.217c1.896,0.155,3.786,0.237,5.691,0.456c1.907,0.247,3.811,0.394,5.729,0.776l2.875,0.503l2.879,0.683
			c1.926,0.395,3.824,1.123,5.735,1.717c0.946,0.351,1.879,0.777,2.819,1.168l1.406,0.603c0.461,0.227,0.91,0.485,1.365,0.729
			c0.904,0.5,1.821,0.979,2.713,1.507l2.574,1.782c0.884,0.564,1.649,1.282,2.443,1.967l1.179,1.042
			c0.401,0.341,0.782,0.699,1.12,1.096l2.105,2.323c0.365,0.379,0.676,0.792,0.975,1.214l0.916,1.254
			c1.291,1.643,2.266,3.43,3.277,5.206c0.543,0.877,0.912,1.805,1.344,2.715l1.252,2.746c0.669,1.86,1.402,3.714,1.986,5.592
			c0.514,1.899,1.049,3.727,1.533,5.688l1.229,5.369l0.59,2.69c0.193,0.904,0.359,1.894,0.54,2.836l0.527,2.86l0.212,1.628
			l0.101,0.816l0.024,0.204c0.01,0.096,0.021,0.367,0.023,0.543c0.005,0.397-0.015,0.797-0.057,1.187l0.029-1.376
			c0.241,2.07,0.463,4.146,0.739,6.201c0.272,2.058,0.585,4.105,0.964,6.125c0.361,2.028,0.806,4.022,1.291,5.997
			c0.512,1.96,1.056,3.908,1.728,5.777c0.649,1.88,1.364,3.716,2.214,5.464c0.852,1.759,1.801,3.393,2.941,5.101
			c0.568,0.875,1.194,1.725,1.912,2.958c0.182,0.336,0.355,0.621,0.537,1.038l0.259,0.592l0.231,0.694
			c0.291,0.939,0.422,2.118,0.282,3.133c-0.271,2.082-1.074,3.382-1.744,4.491c-0.175,0.283-0.351,0.559-0.528,0.801l-0.691,0.968
			l-1.055,1.22c-2.084,2.273-4.681,3.677-7.353,4.289c-2.674,0.612-5.272,0.498-7.658,0.066c-2.395-0.44-4.622-1.173-6.726-2.063
			c-2.106-0.887-4.129-1.881-6.055-2.995c-1.922-1.121-3.787-2.307-5.584-3.57c-1.795-1.264-3.566-2.545-5.256-3.927
			c-3.399-2.733-6.629-5.627-9.659-8.746l0.663-0.748c1.721,1.258,3.504,2.462,5.299,3.621c1.781,1.178,3.59,2.31,5.42,3.393
			c3.656,2.165,7.383,4.185,11.213,5.802c1.898,0.844,3.833,1.544,5.762,2.125c1.928,0.586,3.873,0.984,5.734,1.118
			c1.859,0.139,3.639,0.032,5.121-0.47c1.484-0.472,2.691-1.415,3.455-2.36l0.944-1.307c0.04-0.054-0.292,0.396-0.147,0.196
			l0.012-0.019l0.021-0.038l0.043-0.075l0.086-0.149l0.174-0.297c0.125-0.203,0.219-0.39,0.309-0.574
			c0.398-0.739,0.57-1.417,0.521-1.484c-0.006-0.053-0.024,0.038-0.06-0.042c-0.015-0.021-0.025-0.043-0.031-0.067l-0.085-0.137
			c-0.032-0.077-0.155-0.242-0.235-0.374c-0.402-0.601-1.09-1.456-1.758-2.336c-1.369-1.777-2.729-3.778-3.885-5.817
			c-1.164-2.048-2.17-4.157-3.044-6.292c-0.878-2.139-1.592-4.303-2.263-6.471c-0.642-2.17-1.229-4.348-1.723-6.529
			c-0.512-2.182-0.947-4.367-1.34-6.552c-0.41-2.186-0.715-4.374-1.015-6.564l0.028-1.377c-0.049,0.161-0.075,0.331-0.077,0.499
			l0.007,0.199l-0.023-0.137l-0.09-0.548l-0.17-1.099l-0.54-2.543c-0.187-0.856-0.339-1.675-0.552-2.562l-0.651-2.676l-1.255-5.363
			c-0.408-1.6-0.914-3.295-1.36-4.939c-0.53-1.618-1.101-3.201-1.648-4.803l-1.007-2.277c-0.344-0.752-0.633-1.548-1.061-2.234
			c-0.803-1.415-1.521-2.896-2.481-4.167l-0.674-0.995c-0.218-0.338-0.444-0.668-0.716-0.954l-1.539-1.807
			c-0.242-0.317-0.522-0.593-0.818-0.853l-0.861-0.808c-0.574-0.54-1.114-1.122-1.774-1.563l-1.891-1.442
			c-0.671-0.431-1.371-0.826-2.054-1.248c-0.346-0.205-0.682-0.425-1.035-0.621l-1.107-0.521c-0.742-0.341-1.463-0.721-2.224-1.041
			c-1.576-0.545-3.084-1.23-4.749-1.636l-2.453-0.696l-2.533-0.536c-1.672-0.403-3.432-0.595-5.156-0.882
			c-1.733-0.263-3.514-0.399-5.27-0.608l-5.348-0.392l0.369-0.003l-13.062,0.456l-3.266,0.119l-3.178,0.169
			c-2.134,0.08-4.221,0.318-6.328,0.498c-1.052,0.094-2.077,0.271-3.118,0.401c-1.038,0.139-2.081,0.268-3.089,0.487l-3.053,0.589
			l-2.973,0.779c-1.01,0.223-1.936,0.615-2.901,0.93l-1.438,0.494c-0.472,0.177-0.916,0.404-1.376,0.602l-1.372,0.613
			c-0.463,0.195-0.917,0.406-1.335,0.67l-2.579,1.484l-2.397,1.736c-0.794,0.587-1.471,1.311-2.219,1.955
			c-0.771,0.624-1.377,1.417-2.041,2.154l-0.986,1.117c-0.316,0.384-0.581,0.814-0.875,1.219c-0.554,0.836-1.199,1.606-1.689,2.495
			l-1.489,2.657c-0.499,0.886-0.854,1.864-1.292,2.791c-0.426,0.938-0.855,1.875-1.157,2.846L94.455,40.3
			c-0.33,0.982-0.583,2.083-0.877,3.119l-0.428,1.577l-0.214,0.789l-0.027,0.098c0.007-0.032-0.026,0.107,0.015-0.066l-0.005,0.025
			l-0.011,0.049l-0.045,0.197l-0.089,0.396l-0.714,3.162c-0.456,2.104-0.997,4.229-1.383,6.315l-0.604,3.138
			c-0.117,0.54-0.16,1.004-0.231,1.495l-0.102,0.73l-0.026,0.182c-0.01,0.07-0.018,0.133-0.013,0.087
			c0-0.033-0.018-0.068-0.05-0.096l0.028,0.692c-0.259,2.163-0.518,4.324-0.866,6.479c-0.334,2.156-0.711,4.309-1.162,6.453
			c-0.433,2.146-0.957,4.281-1.532,6.405c-0.603,2.12-1.246,4.232-2.043,6.306c-0.784,2.076-1.675,4.125-2.723,6.105
			c-1.042,1.978-2.259,3.896-3.538,5.671c-0.628,0.887-1.284,1.75-1.76,2.53c-0.477,0.81-0.708,1.367-0.629,1.974
			c0.043,0.625,0.427,1.498,0.896,2.297c0.191,0.369,0.567,0.901,0.804,1.28l0.871,1.105c1.234,1.397,2.827,2.401,4.653,2.896
			c1.823,0.505,3.833,0.529,5.832,0.27c2.005-0.256,4.015-0.791,5.975-1.5c1.962-0.704,3.9-1.527,5.783-2.484
			c3.786-1.873,7.421-4.109,10.939-6.516c3.507-2.42,6.926-5.008,10.163-7.781L122.014,94.419z"/>
	</g>
</g>
<rect x="421.667" y="133.667" fill="#F2DFDB" stroke="#F2DFDB" stroke-miterlimit="10" width="161.333" height="187.333"/>
</svg>
